<svg id="Layer_1" data-name="Layer 1" xmlns="http://www.w3.org/2000/svg" viewBox="0 0 208.77 44.65"><defs><style>.cls-1{fill:#fff;}</style></defs><title>sunday</title><path class="cls-1" d="M23,15.81V6.1h2.6v9.65l3.71-8.9,2.4,1-3.68,8.94,6.82-6.85,1.85,1.85-6.85,6.85,9-3.71,1,2.4-9,3.74h9.7v2.6H30.94l8.9,3.68-1,2.42-9-3.74,6.85,6.88-1.85,1.83-6.8-6.79,3.66,8.9-2.4,1L25.63,29v9.62H23V28.91l-3.71,8.93-2.4-1,3.69-8.93-6.82,6.82L11.93,32.9l6.85-6.82-9,3.68-1-2.42,8.93-3.68H8.11v-2.6h9.7l-9-3.74,1-2.4,8.9,3.68-6.79-6.82,1.86-1.85,6.79,6.82L16.92,7.84l2.4-1Z"/><path class="cls-1" d="M59.06,12.84a17.47,17.47,0,0,1,3.86.68c1.44.4,2.92.77,4.46,1.09V20c-.48-.13-1.12-.27-1.93-.42s-1.67-.29-2.61-.43S61,18.91,60,18.81a25.67,25.67,0,0,0-2.65-.15,8.23,8.23,0,0,0-2.13.22c-.54.16-.79.45-.74.87a.63.63,0,0,0,.44.51,3.74,3.74,0,0,0,.94.27,10.46,10.46,0,0,0,1.17.13c.42,0,.79,0,1.12,0,.93,0,2,0,3.15.13a13.06,13.06,0,0,1,3.31.68,6.85,6.85,0,0,1,2.61,1.63,4,4,0,0,1,1,3,6.06,6.06,0,0,1-.69,2.76,6.81,6.81,0,0,1-2.12,2.38,10.88,10.88,0,0,1-3.55,1.59,14.81,14.81,0,0,1-5,.34,24.92,24.92,0,0,1-4.65-.89c-1.64-.47-3.19-1-4.65-1.49V25.16c.36.12,1,.31,1.78.56s1.76.5,2.8.74,2.1.45,3.21.64a18,18,0,0,0,3,.29,6,6,0,0,0,2.08-.31,1.24,1.24,0,0,0,.91-1,.58.58,0,0,0-.4-.59,3.71,3.71,0,0,0-1.1-.3c-.44-.06-.92-.11-1.43-.13s-1,0-1.42,0c-.68,0-1.55,0-2.61-.1a12,12,0,0,1-3.11-.6,7,7,0,0,1-2.63-1.55,3.85,3.85,0,0,1-1.1-2.93,6.56,6.56,0,0,1,.57-2.66,5.75,5.75,0,0,1,1.89-2.29,10,10,0,0,1,3.51-1.53A21.12,21.12,0,0,1,59.06,12.84Z"/><path class="cls-1" d="M83,27.27a5.69,5.69,0,0,0,3.69-1.07A3.74,3.74,0,0,0,88,23.15V13.52h7.6V32.41H87.4l1.52-3.32H88a4,4,0,0,1-1.12,2.06,5.74,5.74,0,0,1-1.81,1.17,8.22,8.22,0,0,1-2.08.51c-.72.07-1.35.11-1.91.11a14.09,14.09,0,0,1-4.28-.62,9.28,9.28,0,0,1-3.33-1.84,8.23,8.23,0,0,1-2.15-3,9.82,9.82,0,0,1-.78-4v-10h7.37v9.63a3.72,3.72,0,0,0,1.32,3.05A5.82,5.82,0,0,0,83,27.27Z"/><path class="cls-1" d="M110.45,18.69a5.08,5.08,0,0,0-3.7,1.29,4.35,4.35,0,0,0-1.32,3.25v9.18h-7.6V13.59H106l-1.73,3.25h.94a3.59,3.59,0,0,1,.57-1.05,5.76,5.76,0,0,1,2.4-1.93,9,9,0,0,1,4-.8,13.44,13.44,0,0,1,4.42.69,9.7,9.7,0,0,1,3.44,2,8.76,8.76,0,0,1,2.23,3.16,10.64,10.64,0,0,1,.8,4.21v9.33h-7.6V23.23a4.37,4.37,0,0,0-1.3-3.25A5,5,0,0,0,110.45,18.69Z"/><path class="cls-1" d="M149.52,4V32.37H141.4l1.51-2.75H142a4.35,4.35,0,0,1-2.42,2.45A10.33,10.33,0,0,1,135,33a11,11,0,0,1-4-.68A8.53,8.53,0,0,1,128,30.35a8.68,8.68,0,0,1-2-3,10.88,10.88,0,0,1-.7-4,10.78,10.78,0,0,1,.74-4.08,8.53,8.53,0,0,1,2.1-3.08,9.43,9.43,0,0,1,3.28-2,12.49,12.49,0,0,1,4.31-.7,9.4,9.4,0,0,1,6.24,2V4ZM137.09,27.42a5.5,5.5,0,0,0,3.63-1.05,3.85,3.85,0,0,0,1.25-3.1,3.84,3.84,0,0,0-1.25-3.1,5.44,5.44,0,0,0-3.63-1.06,5.57,5.57,0,0,0-3.66,1.06,3.77,3.77,0,0,0-1.29,3.1,3.8,3.8,0,0,0,1.27,3.1A5.63,5.63,0,0,0,137.09,27.42Z"/><path class="cls-1" d="M166.15,32.41l1.51-3.25h-.94a5,5,0,0,1-1.14,1.55A7.41,7.41,0,0,1,163.79,32a10,10,0,0,1-2.31.81,11.88,11.88,0,0,1-2.62.28,8,8,0,0,1-5.14-1.53,5,5,0,0,1-1.93-4.1,4.52,4.52,0,0,1,.91-2.87,6.48,6.48,0,0,1,2.36-1.87,13,13,0,0,1,3.25-1,20.51,20.51,0,0,1,3.57-.32,20,20,0,0,1,3.3.26,10.5,10.5,0,0,1,2.52.72,2,2,0,0,0-.64-1.51,4.92,4.92,0,0,0-1.65-1,10.32,10.32,0,0,0-2.19-.55,16.91,16.91,0,0,0-2.32-.17,21.8,21.8,0,0,0-3.25.25c-1.14.16-2.36.41-3.67.73V14.58a27.82,27.82,0,0,1,3.86-.8,29.88,29.88,0,0,1,3.85-.26q5.82,0,8.9,2.51a8.82,8.82,0,0,1,3.08,7.24v9.14Zm-5.06-9a5.71,5.71,0,0,0-1,.19,4.52,4.52,0,0,0-1,.43,2.77,2.77,0,0,0-.81.7,1.55,1.55,0,0,0-.32.95,1.42,1.42,0,0,0,.87,1.21,4.19,4.19,0,0,0,2.11.49,8.25,8.25,0,0,0,2.18-.29,7.6,7.6,0,0,0,1.83-.73,4.4,4.4,0,0,0,1.28-1.06,2.09,2.09,0,0,0,.53-1.21,10.55,10.55,0,0,0-2.55-.7A14.09,14.09,0,0,0,161.09,23.38Z"/><path class="cls-1" d="M199.67,13.44,189.2,40.65h-7.48l4-9.9-.6-.27-1,1.93h-2.72l-7.26-19h8.35L186.93,26h.15l4.61-12.55Z"/></svg>