<svg id="Layer_1" data-name="Layer 1" xmlns="http://www.w3.org/2000/svg" viewBox="0 0 32 32"><defs><style>.cls-1{fill:#fff;}</style></defs><title>sunday-icon</title><path class="cls-1" d="M14.75,9.69V.33h2.5V9.64L20.84,1l2.31,1L19.6,10.63,26.18,4,28,5.81l-6.61,6.61L30,8.84l1,2.31-8.68,3.61h9.37v2.51H22.38L31,20.82l-1,2.34-8.65-3.61L28,26.19,26.18,28,19.62,21.4,23.15,30l-2.31,1-3.59-8.57v9.28h-2.5V22.34L11.16,31,8.85,30l3.55-8.62L5.82,28,4,26.19l6.61-6.58L2,23.16,1,20.82l8.62-3.55H.34V14.76H9.71L1,11.15,2,8.84l8.6,3.55L4,5.81,5.82,4l6.56,6.58L8.85,2l2.31-1Z"/></svg>